<svg width="181" height="226" viewBox="0 0 181 226" fill="none" xmlns="http://www.w3.org/2000/svg">
<path d="M167.926 106.128C162.754 102.477 157.825 98.8784 153.053 95.4037C148.138 91.8241 143.064 88.1286 137.726 84.3601C137.484 84.19 137.194 84.1132 136.896 84.152C121.889 86.0837 107.702 87.2937 93.5313 87.8371L99.703 23.5074C99.9358 20.6157 98.8123 18.014 96.9632 17.185C92.0992 14.9927 87.4164 14.3243 81.791 15.0364C79.8398 15.2791 78.2241 17.4117 77.8621 20.2171C76.7951 28.6196 75.7889 36.8388 74.8526 44.9264C56.1695 40.7632 37.9241 35.52 19.1314 28.9072C18.8538 28.807 18.5509 28.8201 18.2741 28.9375C12.3671 31.4721 6.70461 33.9931 1.22983 36.4336C-4.23678 38.8754 -9.89926 41.3964 -15.7968 43.9241C-16.1358 44.0656 -16.3893 44.3621 -16.4772 44.7252C-16.5638 45.0801 -16.4786 45.4608 -16.2455 45.7466C-15.116 47.1367 -14.0098 48.5149 -12.9175 49.8744C-7.98353 56.0072 -3.31614 61.799 2.1224 67.6897C4.79935 70.5827 28.795 76.1777 62.4007 83.7649C65.1833 84.391 67.8759 85.0036 70.4716 85.5933C69.0711 99.7906 67.8105 113.725 66.6496 127.607C66.6422 127.656 66.6185 127.702 66.6112 127.751C66.6063 127.784 66.6271 127.812 66.6304 127.846C66.4536 129.919 66.2862 131.984 66.1176 134.057C49.9628 135.173 20.8817 136.785 0.0301559 135.708C-0.259753 135.69 -0.550499 135.788 -0.779872 135.98C-5.801 140.135 -10.5759 144.211 -15.1874 148.144C-19.6929 151.984 -24.3432 155.953 -29.2221 159.996C-29.5078 160.229 -29.6611 160.582 -29.6414 160.953C-29.6218 161.324 -29.4381 161.661 -29.1343 161.865C-27.6339 162.901 -26.1487 163.927 -24.6786 164.941C-18.2327 169.411 -12.15 173.626 -5.29446 177.705C-3.88982 178.543 2.04239 178.629 11.5589 178.233C20.8648 177.846 33.6017 176.996 48.8884 175.926C53.798 175.583 58.5635 175.252 62.9803 174.961C61.972 188.774 60.9903 202.8 59.9718 217.238C59.1745 228.583 58.3666 240.109 57.517 251.914C57.3256 254.586 58.58 256.873 60.409 257.222L72.7898 260.031C73.0175 260.074 73.2408 260.091 73.4677 260.083C74.1158 260.055 74.7536 259.816 75.3203 259.382C76.537 258.461 77.3559 256.736 77.5168 254.77L89.6144 128.699C104.518 128.508 116.72 128.271 125.892 127.89C137.15 127.42 143.861 126.72 145.439 125.619C151.974 121.013 157.727 116.323 163.821 111.375C165.192 110.259 166.573 109.136 167.98 108.001C168.266 107.768 168.428 107.416 168.416 107.046C168.405 106.677 168.221 106.34 167.918 106.127L167.926 106.128ZM62.9287 81.4693C40.3552 76.3718 6.24737 68.6758 3.85831 66.0936C-1.52216 60.2617 -6.16868 54.4981 -11.0749 48.4029C-11.8576 47.4327 -12.6391 46.4543 -13.4369 45.4735C-8.0378 43.1471 -2.84097 40.8322 2.19509 38.5851C7.53495 36.208 13.0461 33.7479 18.7842 31.28C37.5956 37.8789 55.868 43.1094 74.5839 47.2776C73.1722 59.5416 71.8913 71.4909 70.7158 83.2385C68.2007 82.6692 65.6049 82.0795 62.9275 81.4775L62.9287 81.4693ZM48.7197 173.593C27.5442 175.068 -1.45548 177.085 -4.09831 175.694C-10.877 171.659 -16.9364 167.456 -23.3451 163.017C-24.3984 162.291 -25.4588 161.555 -26.5261 160.81C-22.0729 157.096 -17.7979 153.455 -13.6652 149.927C-9.15969 146.087 -4.50948 142.118 0.36937 138.075C21.1465 139.09 49.7689 137.527 65.9225 136.42C64.9511 148.424 64.0369 160.436 63.1416 172.602C58.6242 172.895 53.7474 173.243 48.7115 173.591L48.7197 173.593ZM75.1816 254.562C75.1816 254.562 75.1804 254.57 75.1791 254.578C75.055 256.132 74.4119 257.131 73.9017 257.522C73.5525 257.788 73.3165 257.744 73.2756 257.738L60.8937 254.937C60.3973 254.846 59.7515 253.687 59.8642 252.099C60.7149 240.286 61.5228 228.759 62.32 217.415C64.3219 188.884 66.2108 161.999 68.4014 135.11C68.4026 135.102 68.4051 135.086 68.4063 135.078C69.7611 118.507 71.2259 101.928 72.9073 84.9633C72.9086 84.9551 72.9098 84.947 72.911 84.9388C72.9159 84.9061 72.9126 84.8722 72.9175 84.8395C74.1599 72.3661 75.5102 59.6747 77.0232 46.6231C77.0232 46.6231 77.0233 46.6231 77.0257 46.6067C77.0282 46.5903 77.0294 46.5822 77.0318 46.5658C78.0155 38.0505 79.0727 29.379 80.2014 20.5092C80.4326 18.6876 81.3615 17.4555 82.0861 17.3634C82.9897 17.248 83.8696 17.1792 84.7283 17.1406C88.7677 16.9684 92.3334 17.6701 96.007 19.3245C96.8057 19.6867 97.5373 21.2764 97.3679 23.2996L75.1828 254.554L75.1816 254.562ZM162.346 109.556C156.281 114.484 150.557 119.145 144.095 123.703C141.301 125.668 107.382 126.136 89.841 126.35L93.3104 90.2038C107.506 89.6641 121.733 88.4684 136.746 86.5461C141.933 90.2084 146.877 93.8175 151.673 97.304C156.061 100.495 160.584 103.79 165.307 107.149C164.308 107.953 163.326 108.759 162.347 109.548L162.346 109.556Z" fill="white"/>
<path d="M15.4929 43.5089C15.8572 43.5819 16.1807 43.7785 16.3397 44.058C16.3397 44.058 16.0253 44.6196 15.6518 44.6209C15.0188 44.0971 14.1021 44.3915 14.5411 45.115C14.7471 45.4734 15.078 45.4518 15.5528 45.4284C15.8049 45.4156 16.0861 45.4389 16.376 45.5409C16.5919 45.5955 16.5065 46.3491 16.144 46.4583C16.144 46.4583 15.7304 46.2771 15.2668 46.3321C14.7963 46.414 14.485 46.6989 14.485 46.6989C14.1092 46.7091 13.8186 46.004 14.0079 45.8988C14.1139 45.8204 14.2243 45.7622 14.3347 45.704C13.7982 45.2525 13.6831 44.5726 14.0784 44.0314C14.3201 43.6811 14.7076 43.5112 15.106 43.4875C15.232 43.4811 15.3647 43.486 15.4929 43.5089ZM22.9284 49.5239C24.0257 49.8015 25.3923 50.3385 25.8232 51.548C25.8232 51.548 24.635 52.3863 24.4353 53.819C24.2976 54.7794 24.5344 55.3944 25.4309 55.8604C25.5994 55.9509 25.7994 56.0302 25.9613 56.0711C26.5009 56.2076 26.8301 56.7598 26.6936 57.2995C26.5571 57.8391 26.0049 58.1683 25.4653 58.0318C23.7115 57.5882 22.0323 56.1682 22.2957 53.7275C22.3673 53.0662 22.4637 52.3825 22.6928 51.7036C22.3893 51.6172 22.1037 51.5737 21.8158 51.5391C22.1876 52.9442 21.4192 54.1661 21.0602 54.6016C19.9877 55.9284 18.0722 56.1616 16.3274 55.7202C12.6488 54.7897 11.8648 51.9118 12.3995 49.7982C12.536 49.2586 13.0975 48.0226 14.5207 47.6171C14.7166 47.5614 14.9506 47.544 15.2026 47.5695C15.2768 47.5787 15.3555 47.6082 15.4364 47.6286C15.9648 47.7719 16.4386 48.131 16.2611 48.8325C16.2611 48.8325 15.1428 48.8271 14.5041 50.3306C14.1482 52.078 14.8447 53.259 16.4006 53.6526C17.9656 54.0485 19.095 54.0854 19.8541 53.0142C20.1658 52.5763 20.1691 52.1848 20.0057 51.8851C19.6678 52.0484 19.3544 52.2658 19.0701 52.5575L19.0655 52.5755C17.9134 52.5903 17.1428 51.3618 17.6077 50.8861C19.1172 49.3827 21.0194 49.0505 22.9284 49.5239ZM31.1378 45.61C31.4819 45.6875 31.7514 45.8705 31.7642 46.1226C31.8207 46.8067 31.3145 49.2242 30.7225 51.7156C30.9028 51.6081 31.0831 51.5006 31.2701 51.4044C34.1635 49.8779 38.1658 52.5172 36.9804 57.2031L36.6462 58.4487C36.9675 58.6161 37.2752 58.7992 37.5762 59.0093C38.1106 59.3933 37.4308 61.097 36.2877 61.1141C33.1108 58.6166 29.9929 59.1772 26.3683 58.2603C25.8286 58.1237 25.4994 57.5715 25.6359 57.0319C25.7725 56.4923 26.3246 56.163 26.8643 56.2996C27.1071 56.361 27.3905 56.4135 27.6559 56.4615C28.2689 53.6979 29.3943 46.2982 29.3943 46.2982C29.7448 45.6691 30.5644 45.4937 31.1378 45.61ZM33.6535 52.8399C32.2034 52.406 30.3345 53.6654 29.7988 55.3672L29.7897 55.4032C29.6533 55.9046 29.5372 56.3633 29.4281 56.7567C31.0903 56.9954 32.8043 57.1802 34.3917 57.6009C34.9161 55.944 35.2436 53.8928 34.2354 53.1497C34.0513 53.0075 33.8581 52.9012 33.6535 52.8399ZM44.148 49.2744C44.5573 49.3588 44.874 49.5442 44.8981 49.7895C44.9935 51.0768 43.7624 56.0191 43.1403 58.0245L43.1312 58.0604C43.1289 58.0694 43.1243 58.0874 43.1221 58.0964C43.0767 58.238 43.0492 58.3842 43.0286 58.5417C42.8909 59.5021 43.1412 60.1013 44.0377 60.5673C44.1972 60.6555 44.3972 60.7348 44.5681 60.7781C45.1078 60.9146 45.428 61.4645 45.2915 62.0041C45.155 62.5438 44.6118 62.8753 44.0721 62.7388C41.5268 62.0949 40.746 60.4906 40.9695 57.8294C41.0973 56.3784 42.1662 49.8832 42.1662 49.8832C42.5167 49.2541 43.4689 49.1218 44.148 49.2744ZM55.0207 52.0823C55.6053 52.2302 55.948 52.8049 55.8001 53.3895C55.6522 53.9741 55.0729 54.3348 54.4883 54.1869C53.9037 54.039 53.5476 53.4417 53.6955 52.8571C53.8434 52.2725 54.4361 51.9344 55.0207 52.0823ZM52.5645 54.1883C53.1491 54.3362 53.5052 54.9334 53.3573 55.518C53.2094 56.1026 52.6121 56.4587 52.0275 56.3109C51.4429 56.163 51.0868 55.5657 51.2347 54.9811C51.3826 54.3965 51.9799 54.0404 52.5645 54.1883ZM56.1711 55.1006C56.7467 55.2462 57.1028 55.8435 56.9549 56.4281C56.807 57.0127 56.2097 57.3688 55.6341 57.2232C55.0405 57.073 54.6934 56.4781 54.8413 55.8934C54.9892 55.3088 55.5775 54.9505 56.1711 55.1006ZM49.2084 56.2197C49.6267 56.3064 49.9367 56.4805 49.9405 56.7303C50.0939 58.2045 49.6514 59.5376 49.2164 60.6142C49.2028 60.6299 49.2141 60.6232 49.2164 60.6142C49.216 60.7672 49.2357 60.954 49.2712 61.1161C49.3981 61.598 49.6444 62.0622 50.0401 62.1623C50.211 62.2055 50.4247 62.2309 50.6069 62.2291C51.6262 62.2477 51.8565 61.1481 51.9452 60.7973C52.3275 59.2863 51.8316 57.9934 51.8316 57.9934C52.4014 56.9892 54.5495 57.2359 54.5634 57.8998C54.7258 59.3763 54.2789 60.6891 53.8349 61.7634C53.8389 61.9366 53.8699 62.1167 53.9211 62.2924C54.0481 62.7743 54.2943 63.2385 54.69 63.3386C54.8519 63.3795 55.0656 63.4049 55.2568 63.4054C56.2671 63.4217 56.761 63.0204 57.0988 62.101C57.5954 60.7433 56.9941 59.2993 56.9941 59.2993C57.555 58.2929 59.7301 58.5465 59.735 59.208C59.8974 60.6845 59.4505 61.9973 59.0154 63.0739C59.0194 63.2472 59.0325 63.4227 59.0747 63.5961C59.2016 64.078 59.4658 64.5467 59.8616 64.6468C60.4012 64.7833 60.7304 65.3355 60.5939 65.8752C60.4574 66.4148 59.9052 66.744 59.3656 66.6075C58.5471 66.4005 57.9236 65.6877 57.5524 64.8474C56.5381 65.4903 55.2913 65.5769 54.194 65.2993C53.4115 65.1013 52.8239 64.4359 52.448 63.6518C51.6048 64.2615 50.5964 64.3892 49.5441 64.123C48.7886 63.9319 48.1964 63.2845 47.816 62.5184C46.9953 63.1146 46.0184 63.2311 44.9751 62.9672C44.4355 62.8307 44.1063 62.2785 44.2428 61.7389C44.3793 61.1992 44.9315 60.87 45.4711 61.0065C45.642 61.0497 45.7927 61.0591 45.984 61.0597C46.9943 61.076 47.2336 59.9786 47.3223 59.6279C47.7045 58.1169 47.2086 56.8239 47.2086 56.8239C47.5592 56.1949 48.5293 56.0671 49.2084 56.2197ZM67.1429 55.4359C67.2558 56.919 65.6 63.2754 65.156 64.3497C64.2271 66.622 62.0224 67.2796 60.2596 66.8337C59.7199 66.6972 59.3997 66.1473 59.5362 65.6076C59.6727 65.068 60.2159 64.7365 60.7556 64.873C60.9265 64.9162 61.1402 64.9416 61.3224 64.9398C62.3417 64.9584 62.8856 64.3592 63.2234 63.4398C63.72 62.0821 64.4044 55.5183 64.4044 55.5183C64.9652 54.5118 67.0908 54.772 67.1429 55.4359ZM71.1477 56.0758C71.566 56.1624 71.8692 56.3636 71.8932 56.6089C72.0061 58.092 69.5357 67.6683 69.0917 68.7426C67.7519 69.1213 66.9037 68.2752 67.1525 67.8214C67.649 66.4637 69.1636 56.6935 69.1636 56.6935C69.5119 56.0735 70.4686 55.9231 71.1477 56.0758Z" fill="white"/>
<path d="M24.4844 157.909C25.0411 157.905 25.4893 158.357 25.4929 158.913C25.4965 159.47 25.0541 159.928 24.4975 159.931C23.8017 159.936 23.0771 159.792 22.435 159.49C22.4177 159.685 22.3819 159.889 22.3645 160.056C22.0367 162.452 20.1424 163.633 18.3521 163.682L18.2594 163.682C16.4686 163.657 14.55 162.5 14.2006 160.109C14.0262 158.96 13.9249 157.652 14.4355 156.257C14.6076 155.616 16.7803 155.89 17.0843 156.992C17.0843 156.992 16.1275 158.241 16.2852 159.678C16.3936 160.651 16.7889 161.53 17.7738 161.765C17.9503 161.801 18.1176 161.837 18.2846 161.836L18.2844 161.818C18.4514 161.816 18.6276 161.806 18.8129 161.758C19.7947 161.511 20.1694 160.627 20.2651 159.652C20.6224 156.078 18.8723 147.972 18.8723 147.972C19.0534 147.275 19.9415 146.889 20.6372 146.865C21.0545 146.844 21.4078 146.963 21.4928 147.194C21.805 148.12 22.2703 152.663 22.4319 156.131C22.5402 157.096 22.9331 157.603 23.918 157.838C24.0946 157.883 24.3082 157.91 24.4844 157.909ZM22.4221 156.057C22.4221 156.057 22.4221 156.048 22.4221 156.057V156.057ZM22.4317 156.094C22.4317 156.094 22.4316 156.085 22.4317 156.094V156.094ZM28.4049 152.41C28.8316 152.398 29.1755 152.507 29.242 152.748C29.7705 154.136 29.6866 155.509 29.5271 156.67C29.5746 156.837 29.6313 156.994 29.7251 157.161C29.9599 157.595 30.3241 157.964 30.723 157.961C31.2796 157.958 31.7371 158.409 31.7407 158.966C31.7443 159.523 31.2926 159.971 30.736 159.974C29.901 159.98 29.1369 159.456 28.5664 158.745C27.7464 159.632 26.552 160.011 25.4202 160.009C24.8635 160.012 24.4061 159.57 24.4025 159.013C24.3989 158.457 24.8505 157.999 25.4072 157.996C25.5834 157.994 25.7968 157.984 25.9727 157.936C26.9545 157.689 27.3316 157.176 27.4367 156.21C27.5759 154.772 26.6214 153.516 26.6214 153.516C26.8025 152.819 27.7093 152.442 28.4049 152.41ZM28.0881 160.826C28.6911 160.823 29.1859 161.293 29.1898 161.896C29.1937 162.499 28.7051 162.993 28.1021 162.997C27.4991 163.001 27.0042 162.513 27.0004 161.91C26.9965 161.307 27.4851 160.83 28.0881 160.826ZM34.8417 151.561C36.8737 151.594 38.8869 153.029 40.0908 155.563C40.3444 156.044 40.6192 156.942 40.8565 157.766C41.033 157.793 41.2 157.801 41.367 157.8C41.9236 157.796 42.3811 158.248 42.3847 158.804C42.3883 159.361 41.9367 159.819 41.38 159.822C40.1647 159.83 39.7699 159.035 34.6242 159.541C33.9937 159.601 32.9378 159.877 31.6669 159.885C31.1102 159.888 30.662 159.437 30.6584 158.88C30.6548 158.324 31.0972 157.866 31.6538 157.862C34.0195 157.847 36.1499 157.323 38.201 157.44L38.6466 157.483C38.4465 156.659 38.2846 156.011 38.2846 156.011C37.6388 153.705 34.9001 153.425 33.5635 154.761C32.4132 154.768 31.556 152.77 32.129 152.432C32.9787 151.833 33.9139 151.548 34.8417 151.561ZM36.858 160.659C37.461 160.655 37.9559 161.143 37.9598 161.746C37.9637 162.349 37.4752 162.844 36.8721 162.848C36.2691 162.852 35.7743 162.363 35.7704 161.76C35.7665 161.157 36.255 160.662 36.858 160.659ZM46.0978 147.054C46.5801 148.461 46.5761 155.029 46.4165 156.181C46.0889 158.614 44.1205 159.804 42.3022 159.816C41.7456 159.82 41.2973 159.368 41.2937 158.811C41.2901 158.255 41.7325 157.797 42.2891 157.794C42.4654 157.793 42.6786 157.763 42.8546 157.716C43.8457 157.478 44.2215 156.761 44.3172 155.786C44.4564 154.347 43.468 147.822 43.468 147.822C43.7576 146.707 45.8804 146.424 46.0978 147.054ZM50.1347 146.666C50.5614 146.644 50.9054 146.763 50.9904 146.994C51.4726 148.401 51.4901 158.291 51.3305 159.443C50.129 160.146 49.0953 159.54 49.2219 159.039C49.3611 157.6 48.3698 147.763 48.3698 147.763C48.5509 147.075 49.4391 146.689 50.1347 146.666Z" fill="white"/>
<path d="M107.016 99.9844C107.619 99.9805 108.113 100.45 108.117 101.053C108.121 101.647 107.633 102.151 107.03 102.155C106.436 102.159 105.932 101.661 105.928 101.068C105.924 100.465 106.422 99.9882 107.016 99.9844ZM109.66 99.9673C110.263 99.9634 110.757 100.433 110.761 101.036C110.765 101.63 110.277 102.134 109.674 102.138C109.071 102.142 108.594 101.644 108.59 101.05C108.586 100.447 109.057 99.9712 109.66 99.9673ZM108.836 103.099C109.875 103.102 110.945 103.596 111.629 104.76C112.324 105.934 112.257 108.616 111.572 110.179C110.411 112.858 108.541 113.51 106.314 113.525C103.587 113.542 101.185 112.185 100.501 109.703C100.263 108.823 100.089 107.692 100.19 106.217C100.234 105.743 101.151 105.589 101.55 105.605C102.098 105.61 102.674 105.792 102.927 106.236C102.626 107.036 102.327 108.142 102.555 108.947C103.097 110.948 104.734 111.522 106.301 111.512C107.498 111.504 108.815 111.495 109.505 110.47C107.572 110.038 105.952 109.093 105.541 107.286C104.978 104.859 106.859 103.112 108.836 103.099ZM108.96 105.158C108.561 105.151 108.154 105.293 107.905 105.536C106.66 106.722 109.407 108.235 110.336 108.452C110.626 107.337 110.572 106.187 109.937 105.569C109.657 105.283 109.313 105.156 108.96 105.158ZM117.432 104.751L117.487 104.75C117.821 104.758 118.072 104.858 118.139 105.052C118.573 106.265 118.944 107.682 118.878 108.991C118.917 109.157 118.992 109.315 119.086 109.481C119.32 109.915 119.685 110.293 120.093 110.291C120.65 110.287 121.098 110.739 121.101 111.296C121.105 111.852 120.663 112.3 120.106 112.304L120.106 112.313C119.345 112.318 118.637 111.877 118.086 111.269C117.552 111.968 116.702 112.511 115.405 112.798C115.331 112.817 115.266 112.827 115.183 112.837C114.599 112.943 113.549 111.233 114.277 110.495C114.277 110.495 114.872 110.584 115.566 110.404C117.215 109.994 117.04 108.835 115.796 105.735C115.959 105.104 116.801 104.773 117.432 104.751ZM122.483 101.981C123.086 101.977 123.581 102.475 123.585 103.069C123.589 103.672 123.1 104.167 122.497 104.171C121.894 104.175 121.399 103.686 121.395 103.083C121.391 102.489 121.88 101.985 122.483 101.981ZM123.484 104.73C123.902 104.718 124.246 104.827 124.312 105.068C124.841 106.456 124.765 107.756 124.606 108.916C124.597 108.954 124.588 108.991 124.588 109.028C124.626 109.176 124.692 109.324 124.777 109.481C125.021 109.916 125.375 110.285 125.784 110.282C126.34 110.278 126.798 110.73 126.801 111.287C126.805 111.843 126.353 112.291 125.797 112.295C125.008 112.3 124.272 111.832 123.711 111.186C123.058 111.979 122.104 112.319 121.028 112.326C120.462 112.329 120.014 111.887 120.011 111.33C120.007 110.774 120.449 110.316 121.015 110.313C121.182 110.312 121.395 110.282 121.581 110.235C122.553 109.987 122.509 108.865 122.507 108.512C122.496 106.945 121.701 105.818 121.701 105.818C121.882 105.121 122.779 104.763 123.484 104.73ZM130.083 100.299C130.686 100.295 131.181 100.784 131.185 101.387C131.189 101.99 130.701 102.485 130.098 102.489C129.495 102.493 129 102.004 128.996 101.401C128.992 100.798 129.48 100.303 130.083 100.299ZM130.105 103.602C131.468 103.593 132.782 104.466 133.211 106.143C133.306 106.485 133.336 106.819 133.337 107.125C133.317 108.22 132.869 109.299 132.031 110.186C132.235 110.212 132.448 110.239 132.68 110.237L133.599 110.231C134.155 110.228 134.613 110.68 134.617 111.236C134.62 111.793 134.168 112.25 133.612 112.254L133.046 112.258C131.784 112.266 130.772 112.124 130.158 111.859C129.547 112.132 128.556 112.287 127.183 112.295L126.728 112.298C126.172 112.302 125.714 111.85 125.71 111.294C125.707 110.737 126.158 110.279 126.715 110.276L127.448 110.271C127.736 110.269 127.995 110.258 128.245 110.21C127.405 109.334 126.962 108.252 126.946 107.166C126.934 106.86 126.951 106.526 127.032 106.182C127.439 104.501 128.732 103.611 130.105 103.602ZM130.12 105.903C129.47 105.907 129.011 106.624 129.111 107.737C129.149 107.894 129.196 108.043 129.253 108.191C129.432 108.69 129.75 109.087 130.142 109.391C130.53 109.082 130.861 108.681 131.043 108.179C131.089 108.03 131.116 107.882 131.152 107.724C131.237 106.61 130.769 105.899 130.12 105.903ZM138.33 99.4854C138.812 100.892 138.808 107.461 138.648 108.612C138.321 111.045 136.352 112.236 134.534 112.248C133.977 112.252 133.529 111.8 133.526 111.243C133.522 110.687 133.964 110.229 134.521 110.226C134.697 110.224 134.91 110.195 135.086 110.148C136.077 109.909 136.453 109.192 136.549 108.218C136.688 106.779 135.7 100.254 135.7 100.254C135.989 99.1386 138.112 98.8559 138.33 99.4854ZM142.367 99.0975C142.793 99.0762 143.137 99.1946 143.222 99.4259C143.704 100.833 143.722 110.723 143.562 111.874C142.361 112.578 141.327 111.972 141.454 111.47C141.593 110.031 140.602 100.194 140.602 100.194C140.783 99.5066 141.671 99.1205 142.367 99.0975Z" fill="white"/>
</svg>
